<svg xmlns="http://www.w3.org/2000/svg" xmlns:xlink="http://www.w3.org/1999/xlink" version="1.1" baseProfile="full" viewBox="0 0 200 200" width="200" height="200">
<g fill="black">
<path d="M 20.4 140.8 L 20.520452404022215 140.63543825149537 L 17.8 138.0 L 15.4 134.3 L 13.7 130.4 L 13.653757190704345 130.20578031539918 L 13.3 129.4 L 12.3 125.0 L 12.0 120.5 L 12.5 115.9 L 13.6 111.2 L 15.4 106.4 L 17.8 101.6 L 20.7 96.5 L 22.3 97.2 L 22.064903831481935 98.0620192527771 L 22.4 98.2 L 21.0 103.8 L 20.2 109.0 L 19.9 113.6 L 19.9 117.7 L 20.5 121.2 L 21.293421077728272 123.75657892227173 L 22.2 125.5 L 23.9 127.7 L 25.9 129.7 L 27.428089904785157 130.78239698410033 L 31.2 131.9 L 38.5 133.0 L 46.9 133.5 L 55.6 133.2 L 64.2 132.1 L 72.0 130.1 L 78.3 127.2 L 83.0 123.4 L 84.7 120.2518518447876 L 84.7 118.8 L 84.3 115.2 L 83.6 111.5 L 82.5 107.4 L 81.0 103.0 L 79.1 98.2 L 76.7 93.2 L 74.0 87.7 L 83.2 76.3 L 85.9 82.2 L 88.3 88.4 L 90.1 94.4 L 91.5 100.1 L 92.3 105.5 L 92.6 110.5 L 92.3 115.3 L 91.5 119.6 L 90.0 123.5 L 87.9 126.9 L 87.69415836334228 127.11375865936279 L 87.6 127.4 L 82.0 133.8 L 74.3 138.7 L 65.3 142.3 L 55.6 144.6 L 45.8 145.7 L 36.4 145.6 L 27.8 144.1 L 22.274210929870605 141.6357967376709 L 22.1 141.6 L 22.111969089508058 141.56344566345214 L 21.144966411590577 141.13221473693847 L 21.0 141.1 L 20.93796443939209 141.0399030685425 Z M 42.1 88.5 L 37.9 87.1 L 34.3 84.7 L 31.7 81.4 L 30.7 77.5 L 30.8 76.2 L 30.8 72.4 L 31.8 68.6 L 33.7 65.0 L 36.4 61.3 L 39.08837213516235 58.21627902984619 L 38.5 57.2 L 37.7 55.3 L 37.1 53.3 L 36.8 51.4 L 36.7 49.5 L 37.0 47.7 L 37.5 46.0 L 38.2 44.4 L 39.2 43.0 L 39.8 41.6 L 41.4 42.2 L 41.1 43.5 L 41.5 44.9 L 42.1 46.0 L 42.7 47.0 L 43.4 47.8 L 44.2 48.5 L 45.1 49.1 L 46.0 49.6 L 47.0 50.1 L 48.1 50.6 L 48.21832695007324 50.89233713150024 L 49.8 51.7 L 54.0 54.3 L 57.5 57.2 L 60.4 60.2 L 62.6 63.5 L 64.1 66.9 L 64.7 70.4 L 64.5 73.8 L 63.4 77.1 L 62.1 80.3 L 61.664462852478025 80.14628095626831 L 61.6 80.3 L 59.3 83.0 L 56.2 85.2 L 52.6 86.7 L 48.4 87.6 L 43.7 88.1 L 43.65218658447266 88.07667636871338 Z M 41.1 64.4 L 39.4 68.5 L 38.6 72.0 L 38.6 73.1 L 39.0 73.9 L 39.9 74.7 L 41.1 75.3 L 43.0 75.9 L 44.1454833984375 76.12028522491455 L 44.2 76.1 L 47.7 76.5 L 50.6 76.6 L 52.9 76.5 L 54.6 76.1 L 56.0 75.6 L 57.2 74.7 L 58.2 73.2 L 58.86674585342407 70.9140142440796 L 58.1 69.7 L 56.5 68.0 L 54.4 66.4 L 51.9 64.8 L 48.8 63.3 L 45.1 61.9 L 42.68247213363647 61.16911945343018 Z " />
</g>
</svg>
