<svg xmlns="http://www.w3.org/2000/svg" xmlns:xlink="http://www.w3.org/1999/xlink" version="1.1" baseProfile="full" viewBox="0 0 200 200" width="200" height="200">
<g fill="black">
<path d="M 160.0 156.0 L 40.0 156.0 L 40.0 144.0 L 160.0 144.0 Z M 100.0 114.0 L 160.0 114.0 L 160.0 126.0 L 100.0 126.0 L 88.0 125.9 L 76.0 125.9 L 64.0 126.0 L 40.0 126.0 L 40.0 114.0 L 64.0 114.0 L 76.0 113.9 L 88.0 113.9 Z M 60.1 56.5 L 55.7 59.2 L 52.5 63.4 L 50.4 68.8 L 49.6 75.0 L 50.4 81.1 L 52.5 86.5 L 55.7 90.7 L 60.1 93.4 L 66.0 94.5 L 71.2 93.4 L 76.9 90.3 L 82.9 85.1 L 89.0 78.5 L 92.02229728698731 74.95 L 89.0 71.4 L 82.9 64.8 L 76.9 59.6 L 71.2 56.5 L 66.0 55.5 Z M 144.2 90.7 L 147.4 86.5 L 149.5 81.1 L 150.3 75.0 L 149.5 68.8 L 147.4 63.4 L 144.2 59.2 L 139.8 56.5 L 134.0 55.5 L 128.7 56.5 L 123.0 59.6 L 117.0 64.8 L 110.9 71.4 L 107.8777027130127 74.95 L 110.9 78.5 L 117.0 85.1 L 123.0 90.3 L 128.7 93.4 L 134.0 94.5 L 139.8 93.4 Z M 116.0 100.0 L 108.6 93.7 L 101.8 86.4 L 99.95 84.23692312240601 L 98.1 86.4 L 91.3 93.7 L 83.9 100.0 L 75.5 104.6 L 66.0 106.5 L 55.8 104.6 L 47.6 99.6 L 42.0 92.3 L 38.7 83.9 L 37.6 75.0 L 38.7 66.0 L 42.0 57.6 L 47.6 50.3 L 55.8 45.3 L 66.0 43.5 L 75.5 45.3 L 83.9 49.9 L 91.3 56.2 L 98.1 63.5 L 99.95 65.663076877594 L 101.8 63.5 L 108.6 56.2 L 116.0 49.9 L 124.4 45.3 L 134.0 43.5 L 144.1 45.3 L 152.3 50.3 L 157.9 57.6 L 161.2 66.0 L 162.3 75.0 L 161.2 83.9 L 157.9 92.3 L 152.3 99.6 L 144.1 104.6 L 134.0 106.5 L 124.4 104.6 Z " />
</g>
</svg>
