<svg xmlns="http://www.w3.org/2000/svg" xmlns:xlink="http://www.w3.org/1999/xlink" version="1.1" baseProfile="full" viewBox="0 0 200 200" width="200" height="200">
<g fill="black">
<path d="M 78.36000003814698 70.6493332862854 L 76.1 70.8 L 72.7 67.7 L 72.4 63.2 L 73.8 59.4 L 74.7 56.1 L 75.1 53.2 L 75.0 50.5 L 74.4 48.0 L 73.2 45.5 L 71.57902097702026 43.36713285446167 L 70.6 42.5 L 67.02823858261108 39.88070831298828 L 62.36084146499634 38.96828479766846 L 52.7 38.4 L 43.8 39.7 L 36.4 42.8 L 30.3 47.2 L 25.5 52.9 L 22.2 59.4 L 20.4 66.7 L 20.2 74.4 L 22.0 82.4 L 21.989984798431397 82.47511377334595 L 22.0 82.5 L 22.03274850845337 83.2532163619995 L 24.4 87.1 L 27.5 90.9 L 31.7 94.6 L 36.5 98.1 L 42.1 101.3 L 48.3 104.3 L 55.2 107.1 L 55.04117650985718 108.0 L 56.0 108.0 L 56.0 166.0 L 70.0 166.0 L 70.0 170.0 L 30.0 170.0 L 30.0 166.0 L 44.0 166.0 L 44.0 110.06000003814697 L 41.4 109.7 L 35.4 108.2 L 29.8 106.1 L 24.7 103.4 L 20.2 100.1 L 16.2 96.2 L 12.9 91.8 L 10.2 86.8 L 8.2 81.4 L 8.86321210861206 81.2356141090393 L 7.4 77.0 L 6.5 66.2 L 8.4 56.1 L 12.9 47.2 L 19.7 39.9 L 28.4 34.6 L 38.7 31.6 L 50.2 31.2 L 51.96711893081665 31.539286804199218 L 52.8 31.5 L 64.1 33.8 L 68.19925708770752 35.921545314788816 L 70.8 36.6 L 74.8 38.5 L 78.3 41.0 L 79.92450761795044 42.73654270172119 L 81.5 43.8 L 84.7 47.0 L 87.1 50.7 L 88.5 55.0 L 88.7 59.5 L 87.7 64.2 L 85.7 68.7 L 81.9 71.2 Z " />
</g>
</svg>
