<svg xmlns="http://www.w3.org/2000/svg" xmlns:xlink="http://www.w3.org/1999/xlink" version="1.1" baseProfile="full" viewBox="0 0 200 200" width="200" height="200">
<g fill="black">
<path d="M 69.9 24.7 L 77.9 27.3 L 84.8 32.2 L 89.8 39.5 L 91.8 48.8 L 91.34285717010498 50.0 L 92.0 50.0 L 91.2 57.9 L 89.6 65.1 L 86.6 71.7 L 82.4 77.6 L 76.8 83.0 L 69.8 88.0 L 63.723811626434326 91.46201429367065 L 68.9 91.7 L 76.9 94.3 L 83.8 99.2 L 88.8 106.5 L 90.8 115.8 L 90.34285717010498 117.0 L 91.0 117.0 L 90.2 124.9 L 88.6 132.1 L 85.6 138.7 L 81.4 144.6 L 75.8 150.0 L 68.8 155.0 L 60.2 159.9 L 49.7 165.1 L 44.250561809539796 167.49775276184081 L 38.4 170.4 L 27.0 175.23178806304932 L 27.0 196.12727270126342 L 27.5 197.9 L 1.5 204.9 L 0.4 201.0 L 15.0 197.0692307472229 L 15.0 34.26538457870483 L 1.5 37.9 L 0.4 34.0 L 26.4 27.0 L 27.5 30.9 L 27.0 31.034615421295165 L 27.0 42.84313726425171 L 27.8 41.4 L 35.0 34.3 L 43.4 29.1 L 52.2 25.7 L 61.2 24.3 Z M 76.3 113.4 L 75.5 111.6 L 74.1 109.7 L 72.2 107.8 L 69.7 105.9 L 66.8 104.2 L 63.3 102.7 L 59.4 101.3 L 58.02544279098511 100.86264085769653 L 53.1 101.2 L 45.5 103.3 L 37.9 106.9 L 30.6 112.1 L 27.0 115.26216220855713 L 27.0 172.0309352874756 L 35.5 167.2 L 45.6369649887085 161.22178983688354 L 48.3 159.5 L 57.8 152.7 L 65.1 146.4 L 70.4 140.6 L 74.1 135.3 L 76.3 130.5 L 77.3 126.1 L 77.5 121.9 L 77.0 117.7 L 77.33666009902954 117.65756387710572 L 76.7 116.5 L 76.7 115.0 Z M 77.3 46.4 L 76.5 44.6 L 75.1 42.7 L 73.2 40.8 L 70.7 38.9 L 67.8 37.2 L 64.3 35.7 L 60.4 34.3 L 59.02544279098511 33.86264085769653 L 54.1 34.2 L 46.5 36.3 L 38.9 39.9 L 31.6 45.1 L 27.0 49.140540504455565 L 27.0 105.5992805480957 L 33.2319540977478 102.05737857818603 L 34.0 101.3 L 42.4 96.1 L 45.45100288391113 94.92120342254638 L 46.6369649887085 94.22178983688354 L 49.3 92.5 L 58.8 85.7 L 66.1 79.4 L 71.4 73.6 L 75.1 68.3 L 77.3 63.5 L 78.3 59.1 L 78.5 54.9 L 78.0 50.7 L 78.33666009902954 50.657563877105716 L 77.7 49.5 L 77.7 48.0 Z " />
</g>
</svg>
