<svg xmlns="http://www.w3.org/2000/svg" xmlns:xlink="http://www.w3.org/1999/xlink" version="1.1" baseProfile="full" viewBox="0 0 200 200" width="200" height="200">
<g fill="black">
<path d="M 87.9 134.7 L 85.9 139.3 L 83.1 143.3 L 79.7 146.6 L 75.8 149.1 L 71.4 150.8 L 66.6 151.8 L 64.0 151.90196075439454 L 64.0 152.0 L 35.0 152.0 L 35.0 166.0 L 49.0 166.0 L 49.0 170.0 L 9.0 170.0 L 9.0 166.0 L 23.0 166.0 L 23.0 35.0 L 9.0 35.0 L 9.0 31.0 L 49.0 31.0 L 49.0 35.0 L 35.0 35.0 L 35.0 47.0 L 59.0 47.0 L 59.0 47.08000001907349 L 63.4 47.4 L 68.4 48.4 L 73.0 50.1 L 77.1 52.4 L 80.6 55.5 L 83.6 59.3 L 85.8 63.7 L 87.2 68.6 L 88.0 74.0 L 87.3 79.6 L 85.9 84.7 L 83.8 89.2 L 81.1 93.2 L 77.7 96.4 L 73.7 98.7 L 71.1944444656372 99.61111106872559 L 74.9 100.9 L 79.0 103.1 L 82.6 106.1 L 85.5 109.7 L 87.8 114.0 L 89.2 118.8 L 90.0 124.0 L 89.3 129.6 Z M 77.7 117.2 L 77.0 114.3 L 75.7 111.7 L 73.9 109.3 L 71.4 106.9 L 68.2 104.8 L 64.2 102.8 L 61.94117650985718 102.0 L 35.0 102.0 L 35.0 148.0 L 63.62941179275513 148.0 L 65.4 147.3 L 69.1 145.4 L 72.0 143.2 L 74.2 140.8 L 75.8 138.2 L 77.0 135.3 L 77.7 132.0 L 78.1 128.2 L 78.0 124.0 L 78.1 120.4 Z M 75.7 66.8 L 74.9 63.8 L 73.7 61.0 L 71.8 58.5 L 69.3 56.1 L 66.1 53.9 L 62.1 51.9 L 59.0 50.71276597976684 L 59.0 51.0 L 35.0 51.0 L 35.0 98.0 L 59.68666667938233 98.0 L 63.5 96.7 L 67.1 94.9 L 70.0 92.8 L 72.2 90.5 L 73.9 88.0 L 75.0 85.2 L 75.8 81.9 L 76.1 78.2 L 76.0 74.0 L 76.1 70.1 Z " />
</g>
</svg>
