<svg xmlns="http://www.w3.org/2000/svg" xmlns:xlink="http://www.w3.org/1999/xlink" version="1.1" baseProfile="full" viewBox="0 0 200 200" width="200" height="200">
<g fill="black">
<path d="M 78.4 162.0 L 78.4 170.0 L 24.1 170.0 L 24.1 162.0 Z M 39.7 109.1 L 39.5 108.3 L 39.2 107.6 L 38.6 106.9 L 37.7 106.2 L 36.4 105.5 L 34.5 104.8 L 32.1 104.1 L 29.2 103.7 L 23.3 102.9 L 30.7 91.7 L 34.6 92.4 L 38.2 93.3 L 41.4 94.6 L 44.4 96.2 L 47.1 98.4 L 49.2 101.0 L 50.7 104.0 L 51.6 107.3 L 51.8 110.7 L 51.76470584869385 111.0 L 52.0 111.0 L 48.0 133.0 L 35.9 133.0 L 39.675 112.2375 L 39.6 111.9 L 39.8 110.3 Z M 67.7 109.1 L 67.5 108.3 L 67.2 107.6 L 66.6 106.9 L 65.7 106.2 L 64.4 105.5 L 62.5 104.8 L 60.1 104.1 L 57.2 103.7 L 51.3 102.9 L 58.7 91.7 L 62.6 92.4 L 66.2 93.3 L 69.4 94.6 L 72.4 96.2 L 75.1 98.4 L 77.2 101.0 L 78.7 104.0 L 79.6 107.3 L 79.8 110.7 L 79.76470584869385 111.0 L 80.0 111.0 L 76.0 133.0 L 63.9 133.0 L 67.675 112.2375 L 67.6 111.9 L 67.8 110.3 Z " />
</g>
</svg>
