<svg xmlns="http://www.w3.org/2000/svg" xmlns:xlink="http://www.w3.org/1999/xlink" version="1.1" baseProfile="full" viewBox="0 0 200 200" width="200" height="200">
<g fill="black">
<path d="M 54.9 139.4 L 56.5 141.3 L 57.5 143.4 L 57.8 145.5 L 57.5 147.7 L 56.5 149.8 L 54.9 151.7 L 52.5 152.9 L 49.99983997344971 153.38079996109008 L 50.0 153.4 L 49.95 153.39038457870484 L 49.9 153.4 L 49.900160026550296 153.38079996109008 L 47.4 152.9 L 45.0 151.7 L 43.4 149.8 L 42.4 147.7 L 42.2 145.5 L 42.4 143.4 L 43.4 141.3 L 45.0 139.4 L 47.4 138.1 L 50.0 137.7 L 52.5 138.1 Z M 49.900128078460696 141.4153649330139 L 49.95 147.4 L 49.99987192153931 141.4153649330139 L 49.95 141.40769233703614 Z M 49.7 109.1 L 49.5 108.3 L 49.2 107.6 L 48.6 106.9 L 47.7 106.2 L 46.4 105.5 L 44.5 104.8 L 42.1 104.1 L 39.2 103.7 L 33.3 102.9 L 40.7 91.7 L 44.6 92.4 L 48.2 93.3 L 51.4 94.6 L 54.4 96.2 L 57.1 98.4 L 59.2 101.0 L 60.7 104.0 L 61.6 107.3 L 61.8 110.7 L 61.76470584869385 111.0 L 62.0 111.0 L 58.0 133.0 L 45.9 133.0 L 49.675 112.2375 L 49.6 111.9 L 49.8 110.3 Z " />
</g>
</svg>
