<svg xmlns="http://www.w3.org/2000/svg" xmlns:xlink="http://www.w3.org/1999/xlink" version="1.1" baseProfile="full" viewBox="0 0 200 200" width="200" height="200">
<g fill="black">
<path d="M 59.3 102.4 L 57.8 111.1 L 55.5 118.9 L 52.4 125.8 L 48.4 131.9 L 43.7 136.9 L 38.2 140.9 L 32.0 143.7 L 29.12836456298828 144.42862396240236 L 31.658960819244385 157.95363521575928 L 39.9 157.5 L 49.3 155.6 L 57.2 152.5 L 63.8 148.2 L 69.3 142.6 L 73.6 135.8 L 77.0 127.4 L 78.4 121.625 L 79.3 117.8 L 80.7 106.1 L 81.0 93.0 L 93.0 93.0 L 92.0 107.1 L 89.9 119.7 L 89.48904628753662 121.04164304733277 L 89.3 122.5 L 86.5 132.3 L 82.4 141.2 L 77.1 149.0 L 70.5 155.8 L 62.7 161.4 L 53.7 165.8 L 43.6 169.0 L 34.0322172164917 170.63772859573365 L 34.1 171.0 L 21.8 171.0 L 8.6 100.0 L 19.3 91.9 L 28.008244514465332 138.4420364379883 L 29.2 137.7 L 33.8 133.9 L 37.6 129.7 L 40.7 125.1 L 43.2 119.9 L 45.0 114.2 L 46.3 107.8 L 46.9 100.7 L 47.0 93.0 L 60.0 93.0 Z M 91.9 73.6 L 93.5 75.5 L 94.5 77.6 L 94.8 79.8 L 94.5 81.9 L 93.5 84.0 L 91.9 85.9 L 89.5 87.1 L 86.99983997344971 87.5807999610901 L 87.0 87.6 L 86.95 87.59038457870483 L 86.9 87.6 L 86.9001600265503 87.5807999610901 L 84.4 87.1 L 82.0 85.9 L 80.4 84.0 L 79.4 81.9 L 79.1 79.8 L 79.4 77.6 L 80.4 75.5 L 82.0 73.6 L 84.4 72.4 L 87.0 72.0 L 89.5 72.4 Z M 86.9001280784607 75.61536493301392 L 86.95 81.6 L 86.99987192153931 75.61536493301392 L 86.95 75.60769233703613 Z " />
</g>
</svg>
