<svg xmlns="http://www.w3.org/2000/svg" xmlns:xlink="http://www.w3.org/1999/xlink" version="1.1" baseProfile="full" viewBox="0 0 200 200" width="200" height="200">
<g fill="black">
<path d="M 79.6 175.0 L 12.9 175.0 L 18.9 163.0 L 62.6 163.0 L 62.6 114.0 L 62.5 112.7 L 62.3 111.8 L 62.0 110.9 L 61.6 110.5 L 60.7 110.2 L 59.8 110.0 L 40.7 110.0 L 37.2 109.9 L 33.5 110.0 L 20.1 110.0 L 26.1 98.0 L 33.5 98.0 L 37.2 97.9 L 40.7 98.0 L 60.5 98.0 L 60.5 98.07600002288818 L 61.1 98.1 L 63.6 98.5 L 66.0 99.3 L 68.3 100.6 L 70.3 102.2 L 71.9 104.2 L 73.2 106.5 L 74.0 108.9 L 74.4 111.4 L 74.6 114.0 L 74.6 163.0 L 85.6 163.0 Z M 36.0 140.9 L 34.4 139.0 L 33.4 136.9 L 33.2 134.7 L 33.4 132.6 L 34.4 130.5 L 36.0 128.6 L 38.4 127.4 L 41.0 127.0 L 43.5 127.4 L 45.9 128.6 L 47.5 130.5 L 48.5 132.6 L 48.8 134.7 L 48.5 136.9 L 47.5 139.0 L 45.9 140.9 L 43.5 142.1 L 41.0 142.6 L 38.4 142.1 Z " />
</g>
</svg>
