<svg xmlns="http://www.w3.org/2000/svg" xmlns:xlink="http://www.w3.org/1999/xlink" version="1.1" baseProfile="full" viewBox="0 0 200 200" width="200" height="200">
<g fill="black">
<path d="M 56.0 170.0 L 44.0 170.0 L 44.0 128.0 L 44.195121955871585 128.0 L 44.4 125.9 L 45.1 122.0 L 45.9 118.5 L 46.9 115.2 L 48.1 112.2 L 49.5 109.4 L 51.1 107.1 L 51.426935005187985 106.71857585906983 L 50.3 106.3 L 46.7 104.9 L 43.1 103.6 L 39.5 102.2 L 36.0 100.9 L 30.4 98.8 L 40.2 89.6 L 43.8 91.0 L 47.4 92.3 L 50.9 93.7 L 54.5 95.0 L 76.1 103.4 L 71.8 114.5 L 68.2 113.1 L 64.6 111.8 L 58.136179733276364 109.28629217147827 L 58.1 109.4 L 57.6 111.7 L 57.1 114.2 L 56.7 116.9 L 56.4 119.7 L 56.3 122.7 L 56.2 126.0 L 56.2 129.5 L 56.0 129.86363639831544 Z M 32.9 121.4 L 34.5 123.3 L 35.5 125.4 L 35.8 127.5 L 35.5 129.7 L 34.5 131.8 L 32.9 133.7 L 30.5 134.9 L 27.999839973449706 135.38079996109008 L 28.0 135.4 L 27.95 135.39038457870484 L 27.9 135.4 L 27.900160026550292 135.38079996109008 L 25.4 134.9 L 23.0 133.7 L 21.4 131.8 L 20.4 129.7 L 20.2 127.5 L 20.4 125.4 L 21.4 123.3 L 23.0 121.4 L 25.4 120.1 L 28.0 119.7 L 30.5 120.1 Z M 27.900128078460693 123.41536493301392 L 27.95 129.4 L 27.999871921539306 123.41536493301392 L 27.95 123.40769233703614 Z " />
</g>
</svg>
