<svg xmlns="http://www.w3.org/2000/svg" xmlns:xlink="http://www.w3.org/1999/xlink" version="1.1" baseProfile="full" viewBox="0 0 200 200" width="200" height="200">
<g fill="black">
<path d="M 70.4 169.4 L 58.4 169.4 L 58.4 109.5 L 13.0 109.5 L 19.0 97.5 L 84.1 97.5 L 78.1 109.5 L 70.4 109.5 Z M 42.9 129.4 L 44.5 131.3 L 45.5 133.4 L 45.8 135.5 L 45.5 137.7 L 44.5 139.8 L 42.9 141.7 L 40.5 142.9 L 37.99983997344971 143.38079996109008 L 38.0 143.4 L 37.95 143.39038457870484 L 37.9 143.4 L 37.900160026550296 143.38079996109008 L 35.4 142.9 L 33.0 141.7 L 31.4 139.8 L 30.4 137.7 L 30.2 135.5 L 30.4 133.4 L 31.4 131.3 L 33.0 129.4 L 35.4 128.1 L 38.0 127.7 L 40.5 128.1 Z M 37.900128078460696 131.4153649330139 L 37.95 137.4 L 37.99987192153931 131.4153649330139 L 37.95 131.40769233703614 Z " />
</g>
</svg>
