<svg xmlns="http://www.w3.org/2000/svg" xmlns:xlink="http://www.w3.org/1999/xlink" version="1.1" baseProfile="full" viewBox="0 0 200 200" width="200" height="200">
<g fill="black">
<path d="M 49.7 109.1 L 49.5 108.3 L 49.2 107.6 L 48.6 106.9 L 47.7 106.2 L 46.4 105.5 L 44.5 104.8 L 42.1 104.1 L 39.2 103.7 L 33.3 102.9 L 40.7 91.7 L 44.6 92.4 L 48.2 93.3 L 51.4 94.6 L 54.4 96.2 L 57.1 98.4 L 59.2 101.0 L 60.7 104.0 L 61.6 107.3 L 61.8 110.7 L 61.76470584869385 111.0 L 62.0 111.0 L 58.0 133.0 L 45.9 133.0 L 49.675 112.2375 L 49.6 111.9 L 49.8 110.3 Z M 37.9 113.6 L 39.5 115.5 L 40.5 117.6 L 40.8 119.8 L 40.5 121.9 L 39.5 124.0 L 37.9 125.9 L 35.5 127.1 L 33.0 127.6 L 30.4 127.1 L 28.0 125.9 L 26.4 124.0 L 25.4 121.9 L 25.2 119.8 L 25.4 117.6 L 26.4 115.5 L 28.0 113.6 L 30.4 112.4 L 33.0 112.0 L 35.5 112.4 Z " />
</g>
</svg>
