<svg xmlns="http://www.w3.org/2000/svg" xmlns:xlink="http://www.w3.org/1999/xlink" version="1.1" baseProfile="full" viewBox="0 0 200 200" width="200" height="200">
<g fill="black">
<path d="M 69.2 93.1 L 75.5 95.6 L 80.4 99.5 L 83.5 104.7 L 84.6 110.7 L 84.47604627609253 112.04283170700073 L 84.8 112.1 L 83.6 121.0 L 81.2 129.2 L 77.7 136.9 L 73.3 143.9 L 67.8 150.2 L 61.4 155.7 L 54.1 160.5 L 45.9 164.5 L 36.8 167.8 L 27.0 170.2 L 21.1 171.2 L 22.04670181274414 168.092875957489 L 22.0 168.1 L 22.912890625 165.25 L 25.0 158.4 L 25.113571166992188 158.37958269119264 L 26.1 155.3 L 34.6 154.0 L 42.3 152.1 L 49.2 149.8 L 55.2 147.0 L 60.5 143.8 L 65.0 140.0 L 68.9 135.7 L 72.2 130.8 L 74.9 125.2 L 76.59006624221801 120.28344373703003 L 76.5 115.6 L 75.4 111.7 L 73.7 108.9 L 71.2 106.9 L 67.7 105.4 L 62.8 104.3 L 57.15046730041504 103.93551397323608 L 57.0 104.0 L 22.0 104.0 L 22.0 66.0 L 34.0 60.0 L 34.0 92.0 L 61.9 92.0 Z M 44.9 119.6 L 46.5 121.5 L 47.5 123.6 L 47.8 125.8 L 47.5 127.9 L 46.5 130.0 L 44.9 131.9 L 42.5 133.1 L 40.0 133.6 L 37.4 133.1 L 35.0 131.9 L 33.4 130.0 L 32.4 127.9 L 32.2 125.8 L 32.4 123.6 L 33.4 121.5 L 35.0 119.6 L 37.4 118.4 L 40.0 118.0 L 42.5 118.4 Z " />
</g>
</svg>
