<svg xmlns="http://www.w3.org/2000/svg" xmlns:xlink="http://www.w3.org/1999/xlink" version="1.1" baseProfile="full" viewBox="0 0 200 200" width="200" height="200">
<g fill="black">
<path d="M 26.5 97.7 L 32.9 103.6 L 39.1 109.6 L 45.2 115.8 L 51.1 122.2 L 56.9 128.7 L 60.29860067367554 132.76618299484252 L 62.2 129.8 L 64.3 125.8 L 66.0 121.7 L 67.3 117.4 L 68.3 112.8 L 68.9 108.1 L 69.1 103.1 L 69.0 97.9 L 81.0 97.9 L 80.5 104.0 L 79.5 109.8 L 78.0 115.3 L 76.0 120.4 L 73.6 125.3 L 70.7 129.7 L 67.4 133.7 L 63.836158180236815 137.07627115249633 L 68.0 142.3 L 73.3 149.3 L 78.5 156.4 L 83.5 163.8 L 73.5 170.4 L 68.6 163.3 L 63.7 156.4 L 58.5 149.6 L 53.2 143.0 L 47.8 136.6 L 42.3 130.3 L 36.830563640594484 124.45336112976074 L 35.9 126.8 L 33.9 132.4 L 32.1 137.9 L 30.7 143.3 L 29.6 148.7 L 28.8 154.1 L 28.3 159.4 L 28.1 164.7 L 28.3 169.9 L 16.3 169.9 L 16.7 163.9 L 17.6 158.0 L 18.9 152.2 L 20.6 146.4 L 22.6 140.8 L 25.1 135.2 L 27.9 129.7 L 31.1 124.3 L 33.5080060005188 121.00483379364013 L 30.7 118.1 L 24.7 112.3 L 18.5 106.7 L 14.0 102.6 Z M 52.9 155.6 L 54.5 157.5 L 55.5 159.6 L 55.8 161.7 L 55.5 163.9 L 54.5 166.0 L 52.9 167.9 L 50.5 169.1 L 48.0 169.6 L 45.4 169.1 L 43.0 167.9 L 41.4 166.0 L 40.4 163.9 L 40.2 161.7 L 40.4 159.6 L 41.4 157.5 L 43.0 155.6 L 45.4 154.4 L 48.0 154.0 L 50.5 154.4 Z " />
</g>
</svg>
