<svg xmlns="http://www.w3.org/2000/svg" xmlns:xlink="http://www.w3.org/1999/xlink" version="1.1" baseProfile="full" viewBox="0 0 200 200" width="200" height="200">
<g fill="black">
<path d="M 37.1 89.7 L 41.1 90.6 L 44.8 91.9 L 48.3 93.6 L 51.6 95.6 L 54.5 98.0 L 57.0 100.8 L 59.1 103.9 L 60.9 107.3 L 62.3 111.0 L 62.86909761428833 113.40285654067993 L 62.9 113.4 L 62.92790699005127 113.651162815094 L 63.2 114.8 L 63.10714282989502 115.26428575515747 L 63.4 117.9 L 63.9 122.2 L 64.4 126.3 L 65.1 130.4 L 65.8 134.3 L 66.6 138.1 L 67.5 141.8 L 68.5 145.4 L 69.5 148.8 L 70.6 152.1 L 70.58376293182373 152.34896907806396 L 76.2 170.0 L 63.7 170.0 L 58.1 152.4 L 56.9 148.7 L 56.83874740600586 148.46111497879028 L 55.8 150.0 L 52.2 154.0 L 47.5 158.2 L 41.9 162.4 L 35.3 166.8 L 27.7 171.3 L 22.2 160.6 L 29.6 156.9 L 36.2 153.4 L 41.7 150.1 L 46.2 147.1 L 49.8 144.3 L 52.5 141.8 L 54.3 139.7 L 54.588225555419925 139.20215587615968 L 54.1 136.7 L 53.3 132.4 L 52.6 128.1 L 52.0 123.7 L 51.4 119.1 L 51.10093460083008 115.6607476234436 L 50.8 114.5 L 49.9 112.2 L 48.9 110.1 L 47.6 108.3 L 46.2 106.7 L 44.5 105.3 L 42.6 104.1 L 40.3 103.0 L 37.8 102.2 L 34.9 101.5 L 29.0 100.4 Z M 40.9 122.6 L 42.5 124.5 L 43.5 126.6 L 43.8 128.7 L 43.5 130.9 L 42.5 133.0 L 40.9 134.9 L 38.5 136.1 L 36.0 136.6 L 33.4 136.1 L 31.0 134.9 L 29.4 133.0 L 28.4 130.9 L 28.2 128.7 L 28.4 126.6 L 29.4 124.5 L 31.0 122.6 L 33.4 121.4 L 36.0 121.0 L 38.5 121.4 Z " />
</g>
</svg>
