<svg xmlns="http://www.w3.org/2000/svg" xmlns:xlink="http://www.w3.org/1999/xlink" version="1.1" baseProfile="full" viewBox="0 0 200 200" width="200" height="200">
<g fill="black">
<path d="M 87.0 200.0 L 75.0 200.0 L 75.0 105.0 L 43.7 105.0 L 37.1 104.9 L 30.6 105.0 L 12.0 105.0 L 18.0 93.0 L 30.6 93.0 L 37.1 92.9 L 43.7 93.0 L 87.0 93.0 Z M 47.9 129.6 L 49.5 131.5 L 50.5 133.6 L 50.8 135.7 L 50.5 137.9 L 49.5 140.0 L 47.9 141.9 L 45.5 143.1 L 43.0 143.6 L 40.4 143.1 L 38.0 141.9 L 36.4 140.0 L 35.4 137.9 L 35.2 135.7 L 35.4 133.6 L 36.4 131.5 L 38.0 129.6 L 40.4 128.4 L 43.0 128.0 L 45.5 128.4 Z " />
</g>
</svg>
