<svg xmlns="http://www.w3.org/2000/svg" xmlns:xlink="http://www.w3.org/1999/xlink" version="1.1" baseProfile="full" viewBox="0 0 200 200" width="200" height="200">
<g fill="black">
<path d="M 39.1 89.7 L 43.2 90.7 L 47.0 92.0 L 50.5 93.9 L 53.8 96.1 L 56.7 98.7 L 59.2 101.7 L 61.3 105.1 L 63.0 108.8 L 64.4 112.7 L 65.3 116.9 L 65.0 118.25 L 65.0 170.0 L 53.0 170.0 L 53.0 117.0 L 53.02580642700195 117.0 L 52.8 116.0 L 51.9 113.2 L 50.8 110.9 L 49.5 108.8 L 48.0 107.0 L 46.3 105.5 L 44.4 104.2 L 42.2 103.1 L 39.7 102.2 L 36.9 101.5 L 31.0 100.4 Z M 39.9 124.6 L 41.5 126.5 L 42.5 128.6 L 42.8 130.7 L 42.5 132.9 L 41.5 135.0 L 39.9 136.9 L 37.5 138.1 L 35.0 138.6 L 32.4 138.1 L 30.0 136.9 L 28.4 135.0 L 27.4 132.9 L 27.2 130.7 L 27.4 128.6 L 28.4 126.5 L 30.0 124.6 L 32.4 123.4 L 35.0 123.0 L 37.5 123.4 Z " />
</g>
</svg>
