<svg xmlns="http://www.w3.org/2000/svg" xmlns:xlink="http://www.w3.org/1999/xlink" version="1.1" baseProfile="full" viewBox="0 0 200 200" width="200" height="200">
<g fill="black">
<path d="M 53.7 104.7 L 53.827615642547606 104.46832857131957 L 53.0 104.3 L 56.29707641601563 99.98530731201171 L 60.2 92.9 L 69.9 94.5 L 78.0 98.1 L 84.2 103.4 L 88.2 110.2 L 89.7 117.9 L 88.8 126.1 L 88.51109037399291 126.86421251296997 L 87.6 131.7 L 84.8 138.4 L 80.8 144.8 L 75.7 150.8 L 69.6 156.1 L 62.7 160.9 L 55.0 164.8 L 46.7 167.8 L 37.97605857849121 169.8584581375122 L 38.0 170.0 L 25.9 170.0 L 14.7 104.0 L 25.5 96.1 L 35.62881383895874 155.98154726028443 L 41.6 155.5 L 47.2 154.6 L 52.4 153.4 L 57.2 151.7 L 57.84220781326294 151.40129871368407 L 63.7 148.0 L 69.2 143.9 L 72.84988613128662 140.47357635498048 L 75.7 137.0 L 77.26313562393189 134.78135595321655 L 78.8 130.0 L 79.4 124.8 L 78.8 120.1 L 77.1 116.0 L 74.4 112.4 L 70.6 109.4 L 65.5 107.1 L 58.9 105.5 L 55.21495018005371 104.75049829483032 Z M 54.9 122.6 L 56.5 124.5 L 57.5 126.6 L 57.8 128.7 L 57.5 130.9 L 56.5 133.0 L 54.9 134.9 L 52.5 136.1 L 50.0 136.6 L 47.4 136.1 L 45.0 134.9 L 43.4 133.0 L 42.4 130.9 L 42.2 128.7 L 42.4 126.6 L 43.4 124.5 L 45.0 122.6 L 47.4 121.4 L 50.0 121.0 L 52.5 121.4 Z " />
</g>
</svg>
