<svg xmlns="http://www.w3.org/2000/svg" xmlns:xlink="http://www.w3.org/1999/xlink" version="1.1" baseProfile="full" viewBox="0 0 200 200" width="200" height="200">
<g fill="black">
<path d="M 31.4 170.0 L 19.4 170.0 L 19.4 127.7 L 31.4 127.7 Z M 72.9 111.4 L 72.7 110.8 L 72.5 110.4 L 72.2 110.1 L 71.9 109.9 L 71.3 109.7 L 70.4 109.6 L 69.1 109.5 L 11.2 109.5 L 17.2 97.5 L 72.0 97.5 L 72.0 97.74799995422363 L 74.2 98.1 L 76.6 98.9 L 78.9 100.1 L 80.9 101.8 L 82.5 103.8 L 83.7 106.1 L 84.6 108.5 L 85.0 111.0 L 85.1 113.5 L 85.1 169.8 L 73.1 169.8 L 73.1 112.3 Z M 55.9 126.6 L 57.5 128.5 L 58.5 130.6 L 58.8 132.7 L 58.5 134.9 L 57.5 137.0 L 55.9 138.9 L 53.5 140.1 L 51.0 140.6 L 48.4 140.1 L 46.0 138.9 L 44.4 137.0 L 43.4 134.9 L 43.2 132.7 L 43.4 130.6 L 44.4 128.5 L 46.0 126.6 L 48.4 125.4 L 51.0 125.0 L 53.5 125.4 Z " />
</g>
</svg>
