<svg xmlns="http://www.w3.org/2000/svg" xmlns:xlink="http://www.w3.org/1999/xlink" version="1.1" baseProfile="full" viewBox="0 0 200 200" width="200" height="200">
<g fill="black">
<path d="M 72.14558305740357 119.91554765701294 L 71.2 117.0 L 69.8 113.9 L 68.4 111.4 L 66.8 109.4 L 65.3 107.9 L 63.6 106.9 L 61.9 106.1 L 59.9 105.7 L 57.6 105.6 L 54.9 105.9 L 54.82863845825195 105.45305166244506 L 53.8 105.6 L 51.6 106.4 L 49.1 108.1 L 46.4 110.7 L 43.7 114.2 L 41.0 118.6 L 39.258252429962155 122.01898593902588 L 38.5 126.4 L 37.2 132.1 L 35.89016389846802 137.10819673538208 L 28.1 170.0 L 15.8 170.0 L 23.928166961669923 135.6810729980469 L 23.9 135.5 L 24.481012630462647 133.34683542251588 L 24.8 132.0 L 24.844444465637206 132.0 L 25.6 129.2 L 26.8 124.0 L 27.5 119.8 L 27.7 116.5 L 27.5 114.0 L 26.9 112.1 L 25.8 110.2 L 24.1 108.0 L 21.4 105.5 L 17.7 102.5 L 13.0 98.8 L 25.0 93.0 L 29.2 96.4 L 32.8 99.8 L 35.7 103.4 L 37.80343513488769 107.22442750930786 L 38.9 105.2 L 41.9 101.0 L 45.4 97.6 L 49.5 95.0 L 54.1 93.5 L 55.25932207107544 93.789830493927 L 57.3 93.6 L 61.4 93.8 L 65.5 94.7 L 69.3 96.3 L 72.7 98.5 L 75.7 101.4 L 78.4 104.7 L 80.6 108.5 L 82.4 112.8 L 83.9 117.4 L 83.82173910140992 118.0 L 84.0 118.0 L 89.0 157.0 L 83.0 169.0 L 49.0 169.0 L 55.0 157.0 L 60.8 157.0 L 63.6 156.9 L 66.3 157.0 L 71.3 157.0 L 74.0 156.9 L 76.8 157.0 L 76.9 157.0 Z M 58.9 127.4 L 60.5 129.3 L 61.5 131.4 L 61.8 133.5 L 61.5 135.7 L 60.5 137.8 L 58.9 139.7 L 56.5 140.9 L 53.99983997344971 141.38079996109008 L 54.0 141.4 L 53.95 141.39038457870484 L 53.9 141.4 L 53.900160026550296 141.38079996109008 L 51.4 140.9 L 49.0 139.7 L 47.4 137.8 L 46.4 135.7 L 46.2 133.5 L 46.4 131.4 L 47.4 129.3 L 49.0 127.4 L 51.4 126.1 L 54.0 125.7 L 56.5 126.1 Z M 53.900128078460696 129.4153649330139 L 53.95 135.4 L 53.99987192153931 129.4153649330139 L 53.95 129.40769233703614 Z " />
</g>
</svg>
