<svg xmlns="http://www.w3.org/2000/svg" xmlns:xlink="http://www.w3.org/1999/xlink" version="1.1" baseProfile="full" viewBox="0 0 200 200" width="200" height="200">
<g fill="black">
<path d="M 72.7 105.8 L 72.4 104.9 L 72.0 104.5 L 71.1 104.2 L 70.2 104.0 L 14.0 104.0 L 20.0 92.0 L 69.0 92.0 L 71.5 92.1 L 74.0 92.5 L 76.4 93.3 L 78.7 94.6 L 80.7 96.2 L 82.3 98.2 L 83.6 100.5 L 84.4 102.9 L 84.8 105.4 L 85.0 108.0 L 85.0 169.0 L 73.0 169.0 L 73.0 108.0 L 72.9 106.7 Z M 48.9 126.6 L 50.5 128.5 L 51.5 130.6 L 51.8 132.7 L 51.5 134.9 L 50.5 137.0 L 48.9 138.9 L 46.5 140.1 L 44.0 140.6 L 41.4 140.1 L 39.0 138.9 L 37.4 137.0 L 36.4 134.9 L 36.2 132.7 L 36.4 130.6 L 37.4 128.5 L 39.0 126.6 L 41.4 125.4 L 44.0 125.0 L 46.5 125.4 Z " />
</g>
</svg>
