<svg xmlns="http://www.w3.org/2000/svg" xmlns:xlink="http://www.w3.org/1999/xlink" version="1.1" baseProfile="full" viewBox="0 0 200 200" width="200" height="200">
<g fill="black">
<path d="M 21.0 158.0 L 29.1 158.0 L 33.6 157.9 L 38.4 158.0 L 62.29022560119629 158.0 L 64.6 153.2 L 69.1 141.3 L 71.7 131.1 L 72.6 122.5 L 72.06949682235718 117.27075471878052 L 71.9 116.3 L 69.7 111.7 L 66.6 108.5 L 62.6 106.4 L 57.7 105.2 L 52.0 105.0 L 38.0 105.0 L 35.3 104.9 L 32.5 105.0 L 21.0 105.0 L 27.0 93.0 L 32.5 93.0 L 35.3 92.9 L 38.0 93.0 L 54.0 93.0 L 54.23333330154419 93.1 L 60.1 93.3 L 67.9 95.6 L 74.1 100.2 L 78.3 106.6 L 80.3 114.3 L 80.26589145660401 115.78372097015381 L 80.6 122.8 L 78.9 132.3 L 78.86831684112549 132.38316831588745 L 77.8 138.3 L 76.6 144.7 L 75.4 150.4 L 74.4 155.4 L 73.5 159.7 L 73.0 162.2714285850525 L 73.0 170.0 L 71.53529415130615 170.0 L 71.5 170.2 L 71.00666666030884 170.0 L 38.4 170.0 L 33.6 169.9 L 29.1 170.0 L 15.0 170.0 Z M 66.0 76.0 L 66.0 84.0 L 34.5 84.0 L 34.5 76.0 Z " />
</g>
</svg>
