<svg xmlns="http://www.w3.org/2000/svg" xmlns:xlink="http://www.w3.org/1999/xlink" version="1.1" baseProfile="full" viewBox="0 0 200 200" width="200" height="200">
<g fill="black">
<path d="M 94.0 158.0 L 88.0 170.0 L 50.0 170.0 L 43.0 169.9 L 35.5 170.0 L 13.0 170.0 L 19.0 158.0 L 35.5 158.0 L 43.0 157.9 L 50.0 158.0 L 64.6777777671814 158.0 L 57.6 153.1 L 50.3 147.1 L 43.5 140.5 L 37.3 133.2 L 31.5 125.4 L 26.3 116.9 L 21.6 107.8 L 17.4 98.2 L 28.5 93.7 L 32.4 102.7 L 36.7 111.0 L 41.5 118.7 L 46.7 125.8 L 52.3 132.3 L 58.23417844772339 138.13527545928955 L 58.4 138.0 L 61.6 134.7 L 64.5 131.1 L 67.0 127.1 L 69.2 122.7 L 71.0 117.8 L 72.5 112.3 L 73.7 106.3 L 74.5 99.7 L 75.0 92.5 L 80.45 92.91218490600586 L 87.9 93.1 L 87.1 101.3 L 85.7 108.9 L 83.6 115.9 L 81.0 122.4 L 77.6 128.3 L 73.7 133.5 L 69.2 138.0 L 64.1 141.8 L 63.24720754623413 142.23387689590453 L 64.8 143.5 L 71.8 148.3 L 79.2 152.5 L 87.1 156.2 L 91.4043478012085 158.0 Z M 33.5 136.6 L 35.8 137.8 L 37.5 139.7 L 38.5 141.8 L 38.8 144.0 L 38.5 146.1 L 37.5 148.2 L 35.8 150.1 L 33.5 151.3 L 31.0 151.7 L 30.970795917510987 148.19550704956055 L 30.9292573928833 148.1891164779663 L 30.930000019073486 148.1 L 30.969999980926513 148.1 L 30.95 145.7 L 30.930000019073486 148.1 L 30.35 148.1 L 30.9292573928833 148.1891164779663 L 30.9 151.7 L 28.4 151.3 L 26.1 150.1 L 24.4 148.2 L 23.4 146.1 L 23.2 144.0 L 23.4 141.8 L 24.4 139.7 L 26.1 137.8 L 28.4 136.6 L 31.0 136.2 L 31.0 139.7 L 30.999166679382324 139.8 L 31.0 139.8 L 31.0 136.2 Z M 30.969999980926513 148.1 L 30.970795917510987 148.19550704956055 L 31.0 148.2 L 31.6 148.1 L 31.0 148.1 L 31.0 139.8 L 31.6 139.8 L 31.0 139.7 L 31.0 148.1 Z M 30.3 139.8 L 30.900833320617675 139.8 L 30.9 139.7 Z " />
</g>
</svg>
