<svg xmlns="http://www.w3.org/2000/svg" xmlns:xlink="http://www.w3.org/1999/xlink" version="1.1" baseProfile="full" viewBox="0 0 200 200" width="200" height="200">
<g fill="black">
<path d="M 66.0 93.01690139770508 L 66.78807153701783 93.08349905014038 L 66.8 93.0 L 67.22502946853638 93.12042503356933 L 72.9 93.6 L 79.1 95.4 L 84.3 98.5 L 88.1 102.9 L 90.2 108.3 L 90.4534812927246 112.03884963989258 L 90.8 112.1 L 90.59900493621826 114.18532342910767 L 90.6 114.2 L 90.59259262084962 114.2518518447876 L 90.0 120.4 L 88.1 128.2 L 85.1 135.4 L 81.1 142.1 L 76.1 148.3 L 70.3 153.7 L 63.5 158.5 L 55.9 162.7 L 47.5 166.1 L 38.93503742218017 168.58660202026368 L 39.0 169.0 L 26.9 169.0 L 16.84285717010498 105.0 L 8.0 105.0 L 14.0 93.0 L 26.6 93.0 L 32.5 92.9 L 38.1 93.0 L 42.9 93.0 L 46.1 92.9 L 49.2 93.0 L 66.0 93.0 Z M 36.0 104.9625 L 32.5 104.9 L 28.936633682250978 104.96039600372315 L 36.60257778167725 153.74367647171022 L 43.4 152.4 L 50.9 150.4 L 57.5 147.9 L 63.1 145.1 L 67.8 141.8 L 71.7 138.2 L 74.8 134.1 L 77.2 129.5 L 79.0 124.1 L 79.46945610046387 121.49665269851684 L 79.6 120.3 L 79.4 115.7 L 78.5 112.2 L 77.1 109.6 L 75.2 107.8 L 72.7 106.5 L 69.4 105.5 L 65.8166666984558 105.0 L 36.0 105.0 Z M 46.0 130.9 L 44.4 129.0 L 43.4 126.9 L 43.2 124.8 L 43.4 122.6 L 44.4 120.5 L 46.0 118.6 L 48.4 117.4 L 51.0 117.0 L 53.5 117.4 L 55.9 118.6 L 57.5 120.5 L 58.5 122.6 L 58.8 124.8 L 58.5 126.9 L 57.5 129.0 L 55.9 130.9 L 53.5 132.1 L 51.0 132.6 L 48.4 132.1 Z " />
</g>
</svg>
