<svg xmlns="http://www.w3.org/2000/svg" xmlns:xlink="http://www.w3.org/1999/xlink" version="1.1" baseProfile="full" viewBox="0 0 200 200" width="200" height="200">
<g fill="black">
<path d="M 40.9 169.9 L 37.8 170.0 L 25.0 170.0 L 31.0 158.0 L 37.8 158.0 L 40.9 157.9 L 43.9 158.0 L 58.0 158.0 L 58.0 114.8 L 57.8 114.4 L 57.6 113.2 L 57.2 112.1 L 56.6 111.0 L 55.8 109.9 L 54.7 108.8 L 53.2 107.6 L 51.3 106.4 L 49.0 105.3 L 46.3 104.1 L 43.3 103.1 L 37.5 101.3 L 46.8 91.6 L 50.6 92.9 L 54.0 94.4 L 57.2 96.0 L 60.1 97.8 L 62.7 99.8 L 64.9 102.1 L 66.8 104.6 L 68.3 107.4 L 69.2 110.4 L 69.45806455612183 112.0 L 70.0 112.0 L 70.0 164.0 L 58.0 170.0 L 43.9 170.0 Z M 44.9 124.6 L 46.5 126.5 L 47.5 128.6 L 47.8 130.7 L 47.5 132.9 L 46.5 135.0 L 44.9 136.9 L 42.5 138.1 L 40.0 138.6 L 37.4 138.1 L 35.0 136.9 L 33.4 135.0 L 32.4 132.9 L 32.2 130.7 L 32.4 128.6 L 33.4 126.5 L 35.0 124.6 L 37.4 123.4 L 40.0 123.0 L 42.5 123.4 Z " />
</g>
</svg>
