<svg xmlns="http://www.w3.org/2000/svg" xmlns:xlink="http://www.w3.org/1999/xlink" version="1.1" baseProfile="full" viewBox="0 0 200 200" width="200" height="200">
<g fill="black">
<path d="M 36.0 200.0 L 24.0 200.0 L 24.0 121.0 L 36.0 121.0 Z M 53.0980863571167 166.0452980041504 L 53.0 166.1 L 52.794029808044435 162.65 L 52.1 154.9 L 52.32308940887451 154.76174745559692 L 52.2 152.7 L 59.3 148.7 L 65.5 144.6 L 70.8 140.4 L 75.3 136.1 L 78.9 131.7 L 81.7 127.2 L 83.8 122.5 L 84.17070426940919 121.1495774269104 L 84.24196891784668 119.08290157318115 L 83.9 115.8 L 82.8 112.1 L 81.3 109.5 L 79.4 107.7 L 77.1 106.4 L 74.2 105.6 L 70.3 105.2 L 69.93636360168458 105.0 L 43.0 105.0 L 36.9 104.9 L 30.3 105.0 L 10.0 105.0 L 16.0 93.0 L 30.3 93.0 L 36.9 92.9 L 43.0 93.0 L 69.48421049118042 93.0 L 69.7 92.9 L 70.7 93.0 L 71.0 93.0 L 71.0 93.03000001907348 L 75.7 93.5 L 81.0 95.2 L 85.4 98.1 L 88.6 102.2 L 90.4 107.0 L 90.68301887512207 109.94339618682861 L 90.7 110.0 L 90.74210529327392 110.55789470672607 L 90.9 112.2 L 90.88021974563598 112.38791208267212 L 91.1 115.3 L 90.5 121.1 L 90.36315793991089 121.63026313781738 L 90.2 124.2 L 88.8 130.4 L 86.2 136.6 L 82.6 142.7 L 78.0 148.5 L 72.4 154.2 L 65.9 159.7 L 58.4 165.1 L 53.3 168.3 Z M 61.9 120.4 L 63.5 122.3 L 64.5 124.4 L 64.8 126.5 L 64.5 128.7 L 63.5 130.8 L 61.9 132.7 L 59.5 133.9 L 56.99983997344971 134.38079996109008 L 57.0 134.4 L 56.95 134.39038457870484 L 56.9 134.4 L 56.900160026550296 134.38079996109008 L 54.4 133.9 L 52.0 132.7 L 50.4 130.8 L 49.4 128.7 L 49.2 126.5 L 49.4 124.4 L 50.4 122.3 L 52.0 120.4 L 54.4 119.1 L 57.0 118.7 L 59.5 119.1 Z M 56.900128078460696 122.41536493301392 L 56.95 128.4 L 56.99987192153931 122.41536493301392 L 56.95 122.40769233703614 Z " />
</g>
</svg>
