<svg xmlns="http://www.w3.org/2000/svg" xmlns:xlink="http://www.w3.org/1999/xlink" version="1.1" baseProfile="full" viewBox="0 0 200 200" width="200" height="200">
<g fill="black">
<path d="M 39.1 89.7 L 43.2 90.7 L 47.0 92.0 L 50.5 93.9 L 53.8 96.1 L 56.7 98.7 L 59.2 101.7 L 61.3 105.1 L 63.0 108.8 L 64.4 112.7 L 65.3 116.9 L 65.0 118.25 L 65.0 170.0 L 53.0 170.0 L 53.0 117.0 L 53.02580642700195 117.0 L 52.8 116.0 L 51.9 113.2 L 50.8 110.9 L 49.5 108.8 L 48.0 107.0 L 46.3 105.5 L 44.4 104.2 L 42.2 103.1 L 39.7 102.2 L 36.9 101.5 L 31.0 100.4 Z M 42.9 63.8 L 44.5 65.7 L 45.5 67.8 L 45.8 70.0 L 45.5 72.1 L 44.5 74.2 L 42.9 76.1 L 40.5 77.3 L 38.0 77.8 L 35.4 77.3 L 33.0 76.1 L 31.4 74.2 L 30.4 72.1 L 30.2 70.0 L 30.4 67.8 L 31.4 65.7 L 33.0 63.8 L 35.4 62.6 L 38.0 62.2 L 40.5 62.6 Z " />
</g>
</svg>
