<svg xmlns="http://www.w3.org/2000/svg" xmlns:xlink="http://www.w3.org/1999/xlink" version="1.1" baseProfile="full" viewBox="0 0 200 200" width="200" height="200">
<g fill="black">
<path d="M 76.4 105.8 L 76.3 105.2 L 76.1 104.9 L 75.7 104.5 L 74.8 104.2 L 73.9 104.0 L 31.933333301544188 104.0 L 35.9 104.1 L 35.8 112.8 L 35.9 120.9 L 36.1 128.3 L 36.4 134.9 L 36.9 140.8 L 37.6 146.0 L 38.3 150.5 L 39.2 154.1 L 40.2 157.0 L 41.1 158.9 L 40.93114757537842 159.0 L 41.0 159.0 L 35.0 171.0 L 31.9 171.0 L 31.0 170.93999996185303 L 31.0 171.0 L 18.4 171.0 L 16.6 170.9 L 15.0 171.0 L 6.0 171.0 L 12.0 159.0 L 15.0 159.0 L 16.6 158.9 L 18.4 159.0 L 28.24634141921997 159.0 L 27.7 157.4 L 26.6 152.9 L 25.7 147.8 L 25.0 142.1 L 24.4 135.7 L 24.1 128.7 L 23.9 121.1 L 23.8 112.8 L 23.99555559158325 104.0 L 12.8 104.0 L 18.8 92.0 L 72.7 92.0 L 75.2 92.1 L 77.7 92.5 L 80.1 93.3 L 82.4 94.6 L 84.4 96.2 L 86.1 98.2 L 87.3 100.5 L 88.1 102.9 L 88.5 105.4 L 88.7 108.0 L 88.7 169.0 L 76.7 169.0 L 76.7 108.0 L 76.6 106.7 Z M 58.5 125.6 L 60.8 126.8 L 62.5 128.7 L 63.5 130.8 L 63.8 133.0 L 63.5 135.1 L 62.5 137.2 L 60.8 139.1 L 58.5 140.3 L 56.0 140.7 L 55.97079591751098 137.19550704956055 L 55.9292573928833 137.1891164779663 L 55.93000001907349 137.1 L 55.96999998092652 137.1 L 55.95 134.7 L 55.93000001907349 137.1 L 55.35 137.1 L 55.9292573928833 137.1891164779663 L 55.9 140.7 L 53.4 140.3 L 51.1 139.1 L 49.4 137.2 L 48.4 135.1 L 48.2 133.0 L 48.4 130.8 L 49.4 128.7 L 51.1 126.8 L 53.4 125.6 L 56.0 125.2 Z M 55.97079591751098 137.19550704956055 L 56.0 137.2 L 56.6 137.1 L 55.96999998092652 137.1 Z M 55.3 128.8 L 55.90083332061768 128.8 L 55.9 128.7 Z M 56.6 128.8 L 56.0 128.7 L 55.99916667938233 128.8 Z " />
</g>
</svg>
