<svg xmlns="http://www.w3.org/2000/svg" xmlns:xlink="http://www.w3.org/1999/xlink" version="1.1" baseProfile="full" viewBox="0 0 200 200" width="200" height="200">
<g fill="black">
<path d="M 86.0 175.9 L 13.0 175.9 L 19.0 163.9 L 68.0 163.9 L 68.0 109.4 L 67.9 108.1 L 67.7 107.2 L 67.4 106.3 L 67.2 106.1 L 67.0 106.0 L 66.7 105.8 L 66.1 105.6 L 65.2 105.4 L 21.0 105.4 L 27.0 93.4 L 65.0 93.4 L 65.0 93.43999996185303 L 66.5 93.5 L 69.0 93.9 L 71.4 94.8 L 73.7 96.0 L 75.7 97.6 L 77.3 99.6 L 78.6 101.9 L 79.4 104.3 L 79.8 106.8 L 80.0 109.4 L 80.0 163.9 L 92.0 163.9 Z M 66.0 76.0 L 66.0 84.0 L 34.5 84.0 L 34.5 76.0 Z " />
</g>
</svg>
