<svg xmlns="http://www.w3.org/2000/svg" xmlns:xlink="http://www.w3.org/1999/xlink" version="1.1" baseProfile="full" viewBox="0 0 200 200" width="200" height="200">
<g fill="black">
<path d="M 64.3 112.2 L 63.5 110.8 L 62.4 109.8 L 60.5 108.7 L 56.9 107.3 L 51.5 105.9 L 44.2 104.2 L 34.7 102.3 L 30.334761333465575 101.39057531356812 L 29.5 106.9 L 29.0 112.1 L 29.1 115.9 L 29.8 118.2 L 30.6 119.3 L 31.7 119.9 L 33.7 120.7 L 37.1 121.4 L 41.9 122.0 L 41.744498825073244 122.97392845153809 L 42.0 123.0 L 39.9 134.9 L 35.3 133.9 L 31.2 132.9 L 27.2 131.5 L 23.5 129.0 L 20.8 125.3 L 19.6 120.7 L 19.6 115.4 L 20.4 109.0 L 22.0 100.9 L 23.817511558532715 94.57004604339599 L 25.2 88.1 L 37.1 90.5 L 46.7 92.5 L 54.4 94.2 L 60.5 95.9 L 65.5 97.8 L 69.6 100.2 L 73.0 103.4 L 75.2 107.2 L 76.7 111.2 L 77.9 115.5 L 77.3 120.0 L 77.0 120.23999996185303 L 77.0 200.0 L 67.0 200.0 L 67.0 119.45 L 66.4 118.7 L 65.2 114.8 Z M 62.9 127.6 L 64.5 129.5 L 65.5 131.6 L 65.8 133.7 L 65.5 135.9 L 64.5 138.0 L 62.9 139.9 L 60.5 141.1 L 58.0 141.6 L 55.4 141.1 L 53.0 139.9 L 51.4 138.0 L 50.4 135.9 L 50.2 133.7 L 50.4 131.6 L 51.4 129.5 L 53.0 127.6 L 55.4 126.4 L 58.0 126.0 L 60.5 126.4 Z " />
</g>
</svg>
