<svg xmlns="http://www.w3.org/2000/svg" xmlns:xlink="http://www.w3.org/1999/xlink" version="1.1" baseProfile="full" viewBox="0 0 200 200" width="200" height="200">
<g fill="black">
<path d="M 73.6 169.9 L 71.6 170.0 L 42.8 170.0 L 37.5 169.9 L 31.9 170.0 L 14.0 170.0 L 20.0 158.0 L 31.9 158.0 L 37.5 157.9 L 42.8 158.0 L 71.6 158.0 L 73.6 157.9 L 75.0 157.9666666984558 L 75.0 119.45 L 74.4 118.7 L 73.2 114.8 L 72.3 112.2 L 71.5 110.8 L 70.4 109.8 L 68.5 108.7 L 64.9 107.3 L 59.5 105.9 L 52.2 104.2 L 42.7 102.3 L 38.33476133346558 101.39057531356812 L 37.5 106.9 L 37.0 112.1 L 37.1 115.9 L 37.8 118.2 L 38.6 119.3 L 39.7 119.9 L 41.7 120.7 L 45.1 121.4 L 49.9 122.0 L 49.744498825073244 122.97392845153809 L 50.0 123.0 L 47.9 134.9 L 43.3 133.9 L 39.2 132.9 L 35.2 131.5 L 31.5 129.0 L 28.8 125.3 L 27.6 120.7 L 27.6 115.4 L 28.4 109.0 L 30.0 100.9 L 31.817511558532715 94.57004604339599 L 33.2 88.1 L 45.1 90.5 L 54.7 92.5 L 62.4 94.2 L 68.5 95.9 L 73.5 97.8 L 77.6 100.2 L 81.0 103.4 L 83.2 107.2 L 84.7 111.2 L 85.9 115.5 L 85.3 120.0 L 85.0 120.23999996185303 L 85.0 158.0 L 86.0 158.0 L 80.0 170.0 L 75.7 170.0 Z M 71.9 128.6 L 73.5 130.5 L 74.5 132.6 L 74.8 134.7 L 74.5 136.9 L 73.5 139.0 L 71.9 140.9 L 69.5 142.1 L 67.0 142.6 L 64.4 142.1 L 62.0 140.9 L 60.4 139.0 L 59.4 136.9 L 59.1 134.7 L 59.4 132.6 L 60.4 130.5 L 62.0 128.6 L 64.4 127.4 L 67.0 127.0 L 69.5 127.4 Z " />
</g>
</svg>
