<svg xmlns="http://www.w3.org/2000/svg" xmlns:xlink="http://www.w3.org/1999/xlink" version="1.1" baseProfile="full" viewBox="0 0 200 200" width="200" height="200">
<g fill="black">
<path d="M 68.7 56.2 L 63.9 53.2 L 57.5 50.7 L 50.1 48.3 L 42.4 46.0 L 34.9 43.1 L 28.2 39.1 L 23.1 32.7 L 21.7 24.0 L 22.282089519500733 24.05820894241333 L 21.7 22.7 L 22.5 18.8 L 24.2 15.3 L 26.7 12.4 L 29.8 10.2 L 33.2 8.6 L 37.1 7.5 L 41.3 6.9 L 46.0 6.8 L 46.33754510879517 6.813237094879151 L 46.3 6.2 L 49.7 6.0 L 52.9 6.1 L 56.1 6.3 L 59.2 6.7 L 62.2 7.3 L 65.1 8.1 L 67.9 9.1 L 69.44285717010499 9.785714244842529 L 76.9 7.3 L 77.0 9.2 L 77.2 11.0 L 77.3 12.9 L 77.5 14.8 L 77.6 16.7 L 77.6 18.6 L 77.7 20.4 L 77.7 22.3 L 77.6 24.2 L 78.0 25.9 L 76.4 26.6 L 75.6 25.0 L 74.3 23.5 L 73.1 22.1 L 72.0 20.6 L 70.8 19.0 L 69.7 17.5 L 68.7 15.9 L 67.61964282989501 14.426785755157471 L 66.1 13.7 L 63.6 12.9 L 61.1 12.2 L 58.4 11.6 L 55.6 11.3 L 52.7 11.1 L 49.7 11.0 L 46.6 11.1 L 46.594002914428714 11.00204782485962 L 42.5 12.4 L 39.2 13.9 L 36.7 15.5 L 34.9 17.1 L 33.9 18.6 L 33.5 20.0 L 33.5 21.3 L 33.7 22.7 L 32.67260274887085 25.09726028442383 L 33.7 25.2 L 34.0 27.7 L 35.8 29.8 L 39.9 32.2 L 46.1 34.6 L 53.5 36.8 L 61.4 39.3 L 69.1 42.4 L 76.3 46.9 L 82.0 53.5 L 84.5 62.5 L 84.08139533996582 63.7 L 84.7 63.7 L 83.9 68.3 L 82.2 72.5 L 79.7 76.1 L 76.4 78.9 L 72.6 81.1 L 68.3 82.6 L 63.6 83.5 L 58.4 83.9 L 57.86650247573853 83.88128080368043 L 57.9 84.3 L 54.2 84.5 L 50.6 84.5 L 47.1 84.3 L 43.7 83.9 L 40.4 83.3 L 37.2 82.4 L 34.2 81.3 L 31.2 80.0 L 30.70989007949829 79.74649486541747 L 23.4 81.7 L 23.4 79.9 L 23.3 78.0 L 23.3 64.9 L 23.5 62.5 L 23.1 60.0 L 24.8 59.6 L 25.6 61.9 L 26.9 64.0 L 28.1 66.1 L 29.2 68.1 L 30.3 70.0 L 31.3 71.9 L 32.3 73.7 L 33.194303798675534 75.38924055099487 L 33.4 75.5 L 36.0 76.7 L 38.7 77.6 L 41.6 78.4 L 44.5 79.0 L 47.6 79.4 L 50.8 79.5 L 54.1 79.5 L 57.5 79.3 L 57.504216861724856 79.35271081924438 L 57.7 79.3 L 62.2 77.8 L 65.8 76.1 L 68.7 74.3 L 70.6 72.3 L 71.9 70.3 L 72.6 68.3 L 72.8 66.1 L 72.7 63.7 L 72.75609760284424 63.7 L 72.5 63.2 L 71.5 59.3 Z " />
</g>
</svg>
