<svg xmlns="http://www.w3.org/2000/svg" xmlns:xlink="http://www.w3.org/1999/xlink" version="1.1" baseProfile="full" viewBox="0 0 200 200" width="200" height="200">
<g fill="black">
<path d="M 73.38253965377808 112.64603176116944 L 70.9 112.7 L 67.7 109.5 L 67.6 104.9 L 68.9 102.5 L 69.7 100.3 L 70.1 98.5 L 70.2 96.8 L 69.9 95.1 L 69.1 93.2 L 68.34615383148193 92.17692308425903 L 67.0 91.1 L 63.63605813980102 88.64523162841797 L 60.0 88.2 L 51.6 87.9 L 44.4 89.1 L 38.3 91.4 L 33.4 94.8 L 29.7 98.9 L 27.2 103.5 L 25.8 108.6 L 25.7098445892334 113.37823829650878 L 26.0 113.4 L 25.880645179748534 114.71290321350098 L 26.9 119.3 L 26.844565200805665 119.81000003814697 L 26.887878799438475 120.20848484039307 L 27.0 120.5 L 28.9 123.3 L 31.4 126.2 L 34.8 129.1 L 38.9 131.8 L 43.7 134.4 L 49.1 136.9 L 54.922727298736575 139.0 L 56.0 139.0 L 56.0 166.0 L 70.0 166.0 L 70.0 170.0 L 30.0 170.0 L 30.0 166.0 L 44.0 166.0 L 44.0 141.15357141494752 L 43.4 141.1 L 38.3 140.1 L 33.5 138.7 L 29.0 136.9 L 25.2 134.6 L 21.7 131.8 L 18.5 128.5 L 16.746249961853028 125.60249996185303 L 16.2 125.2 L 15.452336406707763 123.16728973388672 L 14.2 120.6 L 14.47886619567871 120.52066736221313 L 13.0 116.5 L 12.2 107.9 L 14.0 99.8 L 18.0 92.8 L 24.0 87.1 L 31.4 83.1 L 40.0 80.9 L 49.6 80.7 L 51.665916728973386 81.10114889144897 L 51.7 81.1 L 61.1 82.9 L 66.5510708808899 85.68352556228638 L 67.2 85.8 L 70.6 87.0 L 73.6 88.7 L 76.17491960525513 90.97781352996826 L 76.4 91.1 L 79.2 93.4 L 81.5 96.3 L 82.9 99.7 L 83.2 103.5 L 82.4 107.4 L 80.7 111.1 L 76.7 113.4 Z " />
</g>
</svg>
